<?xml version="1.0" encoding="UTF-8" standalone="no"?>
<!-- Created with Inkscape (http://www.inkscape.org/) -->

<svg
   width="2560"
   height="960"
   viewBox="0 0 677.33333 253.99999"
   version="1.1"
   id="svg1"
   xml:space="preserve"
   xmlns:xlink="http://www.w3.org/1999/xlink"
   xmlns="http://www.w3.org/2000/svg"
   xmlns:svg="http://www.w3.org/2000/svg"><defs
     id="defs1"><linearGradient
       id="linearGradient140"><stop
         style="stop-color:#ffffff;stop-opacity:0.1;"
         offset="0"
         id="stop139" /><stop
         style="stop-color:#ffffff;stop-opacity:0.00007212;"
         offset="1"
         id="stop140" /></linearGradient><linearGradient
       id="linearGradient1"><stop
         style="stop-color:#ea2164;stop-opacity:1;"
         offset="0"
         id="stop1" /><stop
         style="stop-color:#fd5722;stop-opacity:1;"
         offset="1"
         id="stop2" /></linearGradient><linearGradient
       xlink:href="#linearGradient1"
       id="linearGradient2"
       x1="169.32855"
       y1="0.0020206466"
       x2="0.0048715221"
       y2="84.66745"
       gradientUnits="userSpaceOnUse" /><linearGradient
       id="a-2"
       gradientTransform="matrix(0.06142117,0,0,0.08703389,54.354166,100.76046)"
       gradientUnits="userSpaceOnUse"
       x1="88.595886"
       x2="536.59589"
       y1="-449.39401"
       y2="-449.39401"><stop
         offset="0"
         stop-color="#9a9996"
         id="stop1-6" /><stop
         offset="0.0357143"
         stop-color="#c0bfbc"
         id="stop2-1" /><stop
         offset="0.0714286"
         stop-color="#9a9996"
         id="stop3-8" /><stop
         offset="0.928571"
         stop-color="#9a9996"
         id="stop4-7" /><stop
         offset="0.964286"
         stop-color="#c0bfbc"
         id="stop5-9" /><stop
         offset="1"
         stop-color="#9a9996"
         id="stop6-2" /></linearGradient><linearGradient
       id="b"
       gradientTransform="matrix(0.26457698,0,0,0.24568467,56.621173,-10.772326)"
       gradientUnits="userSpaceOnUse"
       x1="28"
       x2="107.50499"
       y1="244.78566"
       y2="223.91165"><stop
         offset="0"
         stop-color="#e42c30"
         id="stop7" /><stop
         offset="0.422471"
         stop-color="#e01b24"
         id="stop8" /><stop
         offset="1"
         stop-color="#f63f8e"
         id="stop9" /></linearGradient><linearGradient
       id="c"
       gradientTransform="matrix(-0.26457698,0,0,0.24202046,90.487038,-9.8215958)"
       gradientUnits="userSpaceOnUse"
       x1="28"
       x2="74.351265"
       y1="213.26015"
       y2="255.94756"><stop
         offset="0"
         stop-color="#f54981"
         id="stop10" /><stop
         offset="1"
         stop-color="#f66151"
         stop-opacity="0.145098"
         id="stop11" /></linearGradient><linearGradient
       id="d"
       gradientTransform="matrix(-0.26457698,0,0,0.24202046,90.487324,-9.8215958)"
       gradientUnits="userSpaceOnUse"
       x1="102.79285"
       x2="64.000343"
       y1="214.18112"
       y2="255.94754"><stop
         offset="0"
         stop-color="#ff7800"
         stop-opacity="0.72549"
         id="stop12" /><stop
         offset="1"
         stop-color="#f3a64a"
         stop-opacity="0.003922"
         id="stop13" /></linearGradient><linearGradient
       xlink:href="#linearGradient1"
       id="linearGradient138"
       gradientUnits="userSpaceOnUse"
       x1="169.32855"
       y1="0.0020206466"
       x2="0.0048715221"
       y2="84.66745"
       gradientTransform="matrix(0.99999995,0,0,0.75000001,-25.047691,-1e-6)" /><mask
       maskUnits="userSpaceOnUse"
       id="mask144"><path
         id="path145"
         style="fill:url(#radialGradient145);stroke-width:0.491736"
         d="M 0,0 H 169.33333 V 84.666664 H 0 Z" /></mask><radialGradient
       xlink:href="#linearGradient140"
       id="radialGradient145"
       gradientUnits="userSpaceOnUse"
       gradientTransform="matrix(0.99999998,0,0,0.50000001,0,21.166666)"
       cx="84.666664"
       cy="42.333332"
       fx="84.666664"
       fy="42.333332"
       r="84.666664" /><mask
       maskUnits="userSpaceOnUse"
       id="mask1"><path
         style="-inkscape-font-specification:'Cantarell Ultra-Bold';fill:#ffffff;stroke-width:0.264583"
         d="m 49.755388,32.682552 h 2.92946 v -9.194784 h 1.507066 c 1.10066,0 1.744127,0.524933 1.744127,1.405464 0,0.795867 -0.474133,1.286931 -1.337727,1.286931 h -2.793993 v 2.489197 h 2.387593 c 2.87866,0 4.792127,-1.710264 4.792127,-4.182525 0,-2.269064 -1.6256,-3.555995 -4.385727,-3.555995 h -4.842926 z m 6.51932,0 h 3.522126 l -3.18346,-5.029192 h -3.200393 z m 9.042373,0.169331 c 1.016,0 2.0828,-0.186264 3.132667,-0.541864 l -0.643467,-1.981198 c -0.694273,0.237067 -1.354667,0.3556 -2.032,0.3556 -1.642527,0 -2.404527,-0.711197 -2.404527,-2.421461 0,-1.253064 0.440267,-1.896531 1.27,-1.896531 0.761994,0 1.20226,0.491067 1.20226,1.371598 h -2.82786 v 1.608664 h 5.46946 c 0.06773,-0.423334 0.118534,-0.846664 0.118534,-1.286931 0,-2.421461 -1.38854,-3.843859 -3.7592,-3.843859 -2.62466,0 -4.368787,1.727195 -4.368787,4.334926 0,2.675461 1.828793,4.301056 4.84292,4.301056 z m 9.53344,0 c 2.1844,0 3.826927,-1.879595 3.826927,-4.41959 0,-2.45533 -1.540927,-4.216392 -3.674527,-4.216392 -1.422393,0 -2.506127,0.812798 -3.047993,2.167462 l 0.778933,1.13453 c 0.270933,-0.541864 0.795867,-0.863597 1.4224,-0.863597 0.94826,0 1.540927,0.7112 1.540927,1.930395 0,1.151466 -0.541867,1.828797 -1.473194,1.828797 -0.6096,0 -1.134533,-0.3048 -1.439333,-0.812797 l -0.6604,1.591728 c 0.5588,1.049866 1.507067,1.659464 2.72626,1.659464 z m -4.63972,3.505194 h 2.793993 v -9.939848 l -0.846666,-2.031994 h -1.947327 z m 12.8185,-3.539061 c 0.626527,0 1.286927,-0.118533 1.845727,-0.321731 l -0.57574,-1.930397 c -0.169327,0.0508 -0.355587,0.06773 -0.457187,0.06773 -0.440273,0 -0.67734,-0.270936 -0.67734,-0.795867 v -9.668916 h -2.87866 v 10.024516 c 0,1.676395 0.999067,2.624659 2.7432,2.624659 z m 8.1449,-0.135464 h 2.116667 v -4.605859 c 0,-2.506128 -1.388527,-3.860792 -4.09786,-3.860792 -1.286927,0 -2.6416,0.304798 -3.69146,0.812798 l 0.677333,1.981197 c 0.8636,-0.3048 1.65946,-0.4572 2.3876,-0.4572 1.185327,0 1.86266,0.4064 1.86266,1.185331 v 2.760128 z m -2.844793,0.169331 c 1.6764,0 2.82786,-0.863598 3.38666,-2.624662 l -0.897467,-0.389466 c -0.304793,0.508 -0.863593,0.829733 -1.473193,0.829733 -0.592667,0 -0.999067,-0.3048 -0.999067,-0.745064 0,-0.575733 0.7112,-0.795867 2.607727,-0.795867 v -1.456264 c -3.82692,0 -5.55412,0.829734 -5.55412,2.675462 0,1.507064 1.134533,2.506128 2.92946,2.506128 z m 7.416773,3.505194 h 3.18346 l 1.286929,-3.674525 3.13266,-8.297317 h -2.91252 l -2.015069,6.807184 0.7112,0.01693 -1.8288,-6.82412 h -3.23426 l 3.18346,8.297317 z"
         id="path1"
         aria-label="Replay" /></mask><filter
       style="color-interpolation-filters:sRGB"
       id="filter25"
       x="-1.0502726"
       y="-1.0502726"
       width="3.1005452"
       height="3.1041793"><feFlood
         result="flood"
         in="SourceGraphic"
         flood-opacity="0.050980"
         flood-color="rgb(0,0,0)"
         id="feFlood24" /><feGaussianBlur
         result="blur"
         in="SourceGraphic"
         stdDeviation="12.000000"
         id="feGaussianBlur24" /><feOffset
         result="offset"
         in="blur"
         dx="0.000000"
         dy="0.100000"
         id="feOffset24" /><feComposite
         result="comp1"
         operator="in"
         in="flood"
         in2="offset"
         id="feComposite24" /><feComposite
         result="fbSourceGraphic"
         operator="over"
         in="SourceGraphic"
         in2="comp1"
         id="feComposite25" /><feColorMatrix
         result="fbSourceGraphicAlpha"
         in="fbSourceGraphic"
         values="0 0 0 -1 0 0 0 0 -1 0 0 0 0 -1 0 0 0 0 1 0"
         id="feColorMatrix28" /><feFlood
         id="feFlood28"
         result="flood"
         in="fbSourceGraphic"
         flood-opacity="0.050980"
         flood-color="rgb(0,0,0)" /><feGaussianBlur
         id="feGaussianBlur28"
         result="blur"
         in="fbSourceGraphic"
         stdDeviation="0.000000" /><feOffset
         id="feOffset28"
         result="offset"
         in="blur"
         dx="0.000000"
         dy="-0.100000" /><feComposite
         id="feComposite28"
         result="comp1"
         operator="in"
         in="flood"
         in2="offset" /><feComposite
         id="feComposite29"
         result="fbSourceGraphic"
         operator="over"
         in="fbSourceGraphic"
         in2="comp1" /><feColorMatrix
         result="fbSourceGraphicAlpha"
         in="fbSourceGraphic"
         values="0 0 0 -1 0 0 0 0 -1 0 0 0 0 -1 0 0 0 0 1 0"
         id="feColorMatrix33" /><feFlood
         id="feFlood33"
         result="flood"
         in="fbSourceGraphic"
         flood-opacity="0.101961"
         flood-color="rgb(0,0,0)" /><feGaussianBlur
         id="feGaussianBlur33"
         result="blur"
         in="fbSourceGraphic"
         stdDeviation="0.000000" /><feOffset
         id="feOffset33"
         result="offset"
         in="blur"
         dx="0.100000"
         dy="0.000000" /><feComposite
         id="feComposite33"
         result="comp1"
         operator="in"
         in="flood"
         in2="offset" /><feComposite
         id="feComposite34"
         result="fbSourceGraphic"
         operator="over"
         in="fbSourceGraphic"
         in2="comp1" /><feColorMatrix
         result="fbSourceGraphicAlpha"
         in="fbSourceGraphic"
         values="0 0 0 -1 0 0 0 0 -1 0 0 0 0 -1 0 0 0 0 1 0"
         id="feColorMatrix38" /><feFlood
         id="feFlood38"
         result="flood"
         in="fbSourceGraphic"
         flood-opacity="0.301961"
         flood-color="rgb(0,0,0)" /><feGaussianBlur
         id="feGaussianBlur38"
         result="blur"
         in="fbSourceGraphic"
         stdDeviation="0.000000" /><feOffset
         id="feOffset38"
         result="offset"
         in="blur"
         dx="0.000000"
         dy="0.100000" /><feComposite
         id="feComposite38"
         result="comp1"
         operator="in"
         in="flood"
         in2="offset" /><feComposite
         id="feComposite39"
         result="fbSourceGraphic"
         operator="over"
         in="fbSourceGraphic"
         in2="comp1" /><feColorMatrix
         result="fbSourceGraphicAlpha"
         in="fbSourceGraphic"
         values="0 0 0 -1 0 0 0 0 -1 0 0 0 0 -1 0 0 0 0 1 0"
         id="feColorMatrix39" /><feFlood
         id="feFlood39"
         result="flood"
         in="fbSourceGraphic"
         flood-opacity="0.101961"
         flood-color="rgb(0,0,0)" /><feGaussianBlur
         id="feGaussianBlur39"
         result="blur"
         in="fbSourceGraphic"
         stdDeviation="0.000000" /><feOffset
         id="feOffset39"
         result="offset"
         in="blur"
         dx="-0.100000"
         dy="0.000000" /><feComposite
         id="feComposite40"
         result="comp1"
         operator="in"
         in="flood"
         in2="offset" /><feComposite
         id="feComposite41"
         result="comp2"
         operator="over"
         in="fbSourceGraphic"
         in2="comp1" /></filter></defs><g
     id="layer1"><path
       id="rect1"
       style="fill:url(#linearGradient2);stroke-width:0.491735"
       d="M 0,0 H 169.33333 V 84.666664 H 0 Z"
       mask="url(#mask144)"
       transform="matrix(4,0,0,3,0,1.1875e-6)" /><g
       id="g145"
       transform="matrix(4,0,0,4,100.19076,1.1875e-6)"><g
         id="g2"
         transform="translate(-43.907113,-16.139583)"
         style="filter:url(#filter25)"><path
           d="m 61.912499,35.189582 h 23.283333 c 1.168921,0 2.116666,0.947746 2.116666,2.116667 v 22.225 c 0,1.168921 -0.947745,2.116666 -2.116666,2.116666 H 61.912499 c -1.168921,0 -2.116667,-0.947745 -2.116667,-2.116666 v -22.225 c 0,-1.168921 0.947746,-2.116667 2.116667,-2.116667 z m 0,0"
           fill="url(#a)"
           id="path13"
           style="fill:url(#a-2);stroke-width:0.264583" /><path
           d="m 61.912499,34.131249 h 23.283333 c 1.168921,0 2.116666,0.947746 2.116666,2.116667 v 22.224999 c 0,1.168922 -0.947745,2.116667 -2.116666,2.116667 H 61.912499 c -1.168921,0 -2.116667,-0.947745 -2.116667,-2.116667 V 36.247916 c 0,-1.168921 0.947746,-2.116667 2.116667,-2.116667 z m 0,0"
           fill="#deddda"
           id="path14"
           style="stroke-width:0.264583" /><path
           d="m 63.176504,36.247916 h 20.755323 c 0.698664,0 1.264005,0.56534 1.264005,1.264005 v 15.463655 c 0,0.698666 -0.565341,1.264006 -1.264005,1.264006 H 63.176504 c -0.698665,0 -1.264005,-0.56534 -1.264005,-1.264006 V 37.511921 c 0,-0.698665 0.56534,-1.264005 1.264005,-1.264005 z m 0,0"
           fill="#241f31"
           id="path15"
           style="stroke-width:0.264583" /><path
           d="m 82.020832,56.356249 h 2.116666 v 2.116666 h -2.116666 z m 0,0"
           fill="#5e5c64"
           id="path16"
           style="stroke-width:0.264583" /><path
           d="m 82.020832,55.827082 h 2.116666 v 2.116667 h -2.116666 z m 0,0"
           fill="#9a9996"
           id="path17"
           style="stroke-width:0.264583" /><path
           d="m 79.904165,57.414582 c 0,0.584978 -0.473356,1.058333 -1.058333,1.058333 -0.584978,0 -1.058334,-0.473355 -1.058334,-1.058333 0,-0.584977 0.473356,-1.058333 1.058334,-1.058333 0.584977,0 1.058333,0.473356 1.058333,1.058333 z m 0,0"
           fill="#5e5c64"
           id="path18"
           style="stroke-width:0.264583" /><path
           d="m 79.904165,56.885415 c 0,0.584978 -0.473356,1.058334 -1.058333,1.058334 -0.584978,0 -1.058334,-0.473356 -1.058334,-1.058334 0,-0.584977 0.473356,-1.058333 1.058334,-1.058333 0.584977,0 1.058333,0.473356 1.058333,1.058333 z m 0,0"
           fill="#9a9996"
           id="path19"
           style="stroke-width:0.264583" /><path
           d="m 75.670832,57.414582 c 0,0.584978 -0.473356,1.058333 -1.058334,1.058333 -0.584977,0 -1.058333,-0.473355 -1.058333,-1.058333 0,-0.584977 0.473356,-1.058333 1.058333,-1.058333 0.584978,0 1.058334,0.473356 1.058334,1.058333 z m 0,0"
           fill="#5e5c64"
           id="path20"
           style="stroke-width:0.264583" /><path
           d="m 75.670832,56.885415 c 0,0.584978 -0.473356,1.058334 -1.058334,1.058334 -0.584977,0 -1.058333,-0.473356 -1.058333,-1.058334 0,-0.584977 0.473356,-1.058333 1.058333,-1.058333 0.584978,0 1.058334,0.473356 1.058334,1.058333 z m 0,0"
           fill="#9a9996"
           id="path21"
           style="stroke-width:0.264583" /><path
           d="m 71.437498,57.414582 c 0,0.584978 -0.473356,1.058333 -1.058333,1.058333 -0.584977,0 -1.058333,-0.473355 -1.058333,-1.058333 0,-0.584977 0.473356,-1.058333 1.058333,-1.058333 0.584977,0 1.058333,0.473356 1.058333,1.058333 z m 0,0"
           fill="#5e5c64"
           id="path22"
           style="stroke-width:0.264583" /><path
           d="m 71.437498,56.885415 c 0,0.584978 -0.473356,1.058334 -1.058333,1.058334 -0.584977,0 -1.058333,-0.473356 -1.058333,-1.058334 0,-0.584977 0.473356,-1.058333 1.058333,-1.058333 0.584977,0 1.058333,0.473356 1.058333,1.058333 z m 0,0"
           fill="#9a9996"
           id="path23"
           style="stroke-width:0.264583" /><path
           d="m 64.029165,56.356249 h 2.116667 c 0.584977,0 1.058333,0.473356 1.058333,1.058333 0,0.584978 -0.473356,1.058333 -1.058333,1.058333 h -2.116667 c -0.584977,0 -1.058333,-0.473355 -1.058333,-1.058333 0,-0.584977 0.473356,-1.058333 1.058333,-1.058333 z m 0,0"
           fill="#241f31"
           id="path24"
           style="stroke-width:0.264583" /><path
           d="m 67.204165,38.364582 h 12.7 c 1.752865,0 3.175,1.319816 3.175,2.948657 v 7.861019 c 0,1.628841 -1.422135,2.948657 -3.175,2.948657 h -12.7 c -1.752864,0 -3.175,-1.319816 -3.175,-2.948657 v -7.861019 c 0,-1.628841 1.422136,-2.948657 3.175,-2.948657 z m 0,0"
           fill="url(#b)"
           id="path25"
           style="fill:url(#b);stroke-width:0.264583" /><path
           d="m 73.554165,45.243749 c -5.572786,-0.06305 -9.525,-3.306258 -9.525,-3.306258 l 0.06098,2.128035 -0.06098,5.302002 c -0.0083,0.701766 0.296623,1.243335 0.748275,1.712557 0.583944,0.605648 1.435571,1.04283 2.426725,1.04283 h 12.7 c 1.759066,0 3.175,-1.272273 3.175,-2.881477 v -7.181991 c 0,0 -0.397908,0.447518 -1.286743,1.037663 -1.401465,0.933276 -3.935677,2.195215 -8.238257,2.146639 z m 0,0"
           fill="url(#c)"
           id="path26"
           style="fill:url(#c);stroke-width:0.264583" /><path
           d="m 73.554165,45.243749 c -5.572786,-0.06305 -9.525,-3.306258 -9.525,-3.306258 v 7.211963 c 0,1.60817 1.416968,2.973461 3.175,2.973461 h 12.7 c 1.242301,0 2.314071,-0.571541 2.836003,-1.474845 0.21704,-0.375171 0.338997,-0.808219 0.338997,-1.280542 v -7.308081 c 0,0 -0.397908,0.447518 -1.28571,1.037663 -1.401464,0.933276 -3.93671,2.195215 -8.23929,2.146639 z m 0,0"
           fill="url(#d)"
           id="path27"
           style="fill:url(#d);stroke-width:0.264583" /><path
           d="m 74.019253,41.673941 c 0.111621,0.0072 0.224276,0.01964 0.334863,0.03721 0.940511,0.134359 1.790072,0.63562 2.362647,1.395264 1.179256,1.57303 0.847493,3.825089 -0.724504,5.004345 -1.57303,1.179256 -3.825089,0.84646 -5.004346,-0.725537 -0.07338,-0.101286 -0.113688,-0.227376 -0.112654,-0.353467 v -0.595312 h 0.595312 c 0.19017,10e-4 0.370004,0.08992 0.484725,0.241846 0.792717,1.057299 2.271696,1.258838 3.328996,0.465088 1.058333,-0.792717 1.258838,-2.271696 0.466121,-3.33003 -0.794783,-1.0573 -2.273763,-1.257804 -3.332096,-0.465088 -0.255281,0.192237 -0.457853,0.436149 -0.612882,0.706934 h 0.855761 c 0.328663,0 0.595313,0.26665 0.595313,0.595312 v 0.595313 h -3.571875 v -3.571875 h 0.595312 c 0.328663,0 0.595313,0.26665 0.595313,0.595312 v 1.00459 c 0.690397,-1.052132 1.88619,-1.66088 3.143994,-1.599902 z m 0,0"
           fill="#f6f5f4"
           id="path28"
           style="stroke-width:0.264583" /></g><path
         id="rect1-2"
         style="fill:url(#linearGradient138);stroke-width:0.425855"
         d="M -25.04769,-1e-6 H 144.28564 V 63.499998 H -25.04769 Z"
         mask="url(#mask1)" /></g><path
       style="-inkscape-font-specification:'Cantarell Bold';fill:#ed333b;stroke-width:1.05833"
       d="m 303.15489,169.75453 h 2.00237 v -4.22204 l 3.81846,-6.55036 h -2.2352 l -2.63877,5.01367 h 0.24835 l -2.77847,-5.01367 h -2.35937 l 3.94263,6.51932 z m 10.21362,0.15522 c 2.37489,0 3.9892,-1.6143 3.9892,-4.03577 0,-2.31281 -1.47461,-3.81846 -3.75637,-3.81846 -2.39042,0 -3.97368,1.61431 -3.97368,4.05129 0,2.29729 1.45908,3.80294 3.74085,3.80294 z m 0.17074,-1.66087 c -1.16417,0 -1.90923,-0.90029 -1.90923,-2.31281 0,-1.35043 0.68298,-2.20415 1.80057,-2.20415 1.16417,0 1.90923,0.91581 1.90923,2.32833 0,1.35043 -0.68297,2.18863 -1.80057,2.18863 z m 8.08708,1.62983 c 1.03998,0 2.03341,-0.46567 2.71638,-1.31939 l -0.29492,-1.21073 c -0.45014,0.51223 -1.07103,0.82268 -1.70744,0.82268 -1.07103,0 -1.38148,-0.82268 -1.38148,-1.56774 v -4.39279 h -1.98684 v 4.81188 c 0,1.75401 1.08656,2.85609 2.6543,2.85609 z m 2.70086,-0.12418 h 1.42804 v -7.54379 h -1.98684 v 6.2244 z m 3.66323,0 h 1.97132 v -5.16889 l -0.40358,-2.3749 h -1.56774 z m 1.59878,-4.28413 c 0.4191,-0.91581 1.24178,-1.45908 2.15759,-1.45908 0.32596,0 0.68298,0.0621 0.96237,0.15522 l 0.46567,-1.8161 c -0.32597,-0.12417 -0.71402,-0.20179 -1.1176,-0.20179 -0.99342,0 -1.90923,0.52776 -2.46803,1.42805 z m 10.81896,4.28413 h 2.07997 l 3.88055,-10.7724 h -2.06445 l -3.24414,9.82555 h 0.93133 l -3.11996,-9.82555 h -2.32833 z m 7.1402,0 h 1.97132 v -7.54379 h -1.97132 z m 0.99342,-8.92526 c 0.74507,0 1.22626,-0.48119 1.22626,-1.22626 0,-0.74506 -0.48119,-1.22625 -1.22626,-1.22625 -0.72954,0 -1.21073,0.48119 -1.21073,1.22625 0,0.74507 0.48119,1.22626 1.21073,1.22626 z m 6.03813,9.08048 c 1.17969,0 2.11102,-0.57432 2.68534,-1.55222 l -0.45014,-1.02446 c -0.34149,0.57432 -0.91581,0.91581 -1.62984,0.91581 -1.14864,0 -1.87818,-0.90029 -1.87818,-2.32833 0,-1.33491 0.66745,-2.18863 1.80057,-2.18863 0.74507,0 1.35043,0.35701 1.70745,0.96237 l 0.55879,-1.1952 c -0.51223,-0.93134 -1.39699,-1.44357 -2.54564,-1.44357 -2.11102,0 -3.52354,1.59879 -3.52354,3.98921 0,2.32833 1.33491,3.86502 3.27519,3.86502 z m 2.73191,-0.15522 h 1.27282 v -11.4709 h -1.92476 v 10.10495 z m 7.18678,0.15522 c 0.90029,0 1.84714,-0.17074 2.66982,-0.51223 l -0.43463,-1.38147 c -0.60536,0.24835 -1.27282,0.38805 -1.90923,0.38805 -1.62983,0 -2.49907,-0.90029 -2.49907,-2.6543 0,-1.41252 0.58984,-2.15758 1.64535,-2.15758 0.9779,0 1.5367,0.62089 1.5367,1.73848 h -3.44593 v 1.21074 h 5.23098 c 0.0466,-0.31045 0.0776,-0.77611 0.0776,-1.13312 0,-2.04893 -1.25729,-3.3528 -3.25966,-3.3528 -2.25072,0 -3.75637,1.61431 -3.75637,3.95816 0,2.42146 1.56774,3.89607 4.14443,3.89607 z m 7.93185,0 c 2.3749,0 3.98921,-1.6143 3.98921,-4.03577 0,-2.31281 -1.47461,-3.81846 -3.75638,-3.81846 -2.39042,0 -3.97368,1.61431 -3.97368,4.05129 0,2.29729 1.45909,3.80294 3.74085,3.80294 z m 0.17074,-1.66087 c -1.16416,0 -1.90923,-0.90029 -1.90923,-2.31281 0,-1.35043 0.68298,-2.20415 1.80058,-2.20415 1.16416,0 1.90923,0.91581 1.90923,2.32833 0,1.35043 -0.68298,2.18863 -1.80058,2.18863 z m 13.02313,1.66087 c 2.71638,0 4.50144,-1.69192 4.50144,-4.28412 v -6.6435 h -1.97132 v 6.87633 c 0,1.45909 -0.85373,2.31281 -2.29729,2.31281 -1.59879,0 -2.53012,-0.96238 -2.53012,-2.60773 v -6.58141 h -2.00236 v 6.73663 c 0,2.57669 1.64535,4.19099 4.29965,4.19099 z m 11.59507,-0.15522 h 1.98684 v -4.64114 c 0,-1.87818 -1.05551,-3.02682 -2.76295,-3.02682 -1.08656,0 -2.0955,0.48118 -2.794,1.3349 l 0.29492,1.21074 c 0.49671,-0.52776 1.1176,-0.82268 1.8161,-0.82268 0.96238,0 1.45909,0.54328 1.45909,1.56774 z m -4.96711,0 h 1.97132 v -6.20888 l -0.5588,-1.33491 h -1.41252 z m 9.04945,0 h 1.97132 v -7.54379 h -1.97132 z m 0.99342,-8.92526 c 0.74506,0 1.22625,-0.48119 1.22625,-1.22626 0,-0.74506 -0.48119,-1.22625 -1.22625,-1.22625 -0.72954,0 -1.21073,0.48119 -1.21073,1.22625 0,0.74507 0.48119,1.22626 1.21073,1.22626 z m 5.09127,8.92526 h 1.9558 l 2.9337,-7.54379 h -1.98685 l -2.14206,6.44172 h 0.51223 l -2.03341,-6.44172 h -2.1731 z m 9.74794,0.15522 c 0.90029,0 1.84714,-0.17074 2.66982,-0.51223 l -0.43462,-1.38147 c -0.60537,0.24835 -1.27282,0.38805 -1.90923,0.38805 -1.62984,0 -2.49908,-0.90029 -2.49908,-2.6543 0,-1.41252 0.58984,-2.15758 1.64535,-2.15758 0.9779,0 1.5367,0.62089 1.5367,1.73848 h -3.44593 v 1.21074 h 5.23098 c 0.0466,-0.31045 0.0776,-0.77611 0.0776,-1.13312 0,-2.04893 -1.2573,-3.3528 -3.25967,-3.3528 -2.25072,0 -3.75637,1.61431 -3.75637,3.95816 0,2.42146 1.56774,3.89607 4.14443,3.89607 z m 4.65666,-0.15522 h 1.97132 v -5.16889 l -0.40357,-2.3749 h -1.56775 z m 1.59879,-4.28413 c 0.4191,-0.91581 1.24178,-1.45908 2.15759,-1.45908 0.32596,0 0.68297,0.0621 0.96237,0.15522 l 0.46567,-1.8161 c -0.32597,-0.12417 -0.71402,-0.20179 -1.1176,-0.20179 -0.99342,0 -1.90923,0.52776 -2.46803,1.42805 z m 7.23335,4.43935 c 2.07997,0 3.30623,-0.90028 3.30623,-2.42146 0,-2.82504 -4.26861,-1.86266 -4.26861,-3.13548 0,-0.46567 0.52776,-0.74507 1.45909,-0.74507 0.62089,0 1.36595,0.12418 2.06445,0.32597 l 0.40358,-1.49013 c -0.6985,-0.24836 -1.58327,-0.38806 -2.43699,-0.38806 -2.15758,0 -3.41488,0.88477 -3.41488,2.42146 0,2.80952 4.22204,1.73849 4.22204,3.11997 0,0.48118 -0.51223,0.77611 -1.36596,0.77611 -0.72954,0 -1.72296,-0.20179 -2.51459,-0.51224 l -0.45015,1.47461 c 0.86925,0.35701 1.97132,0.57432 2.99579,0.57432 z m 8.64587,0 c 0.90028,0 1.84714,-0.17074 2.66981,-0.51223 l -0.43462,-1.38147 c -0.60536,0.24835 -1.27282,0.38805 -1.90923,0.38805 -1.62983,0 -2.49907,-0.90029 -2.49907,-2.6543 0,-1.41252 0.58984,-2.15758 1.64535,-2.15758 0.9779,0 1.5367,0.62089 1.5367,1.73848 h -3.44593 v 1.21074 h 5.23098 c 0.0466,-0.31045 0.0776,-0.77611 0.0776,-1.13312 0,-2.04893 -1.2573,-3.3528 -3.25966,-3.3528 -2.25072,0 -3.75637,1.61431 -3.75637,3.95816 0,2.42146 1.56774,3.89607 4.14443,3.89607 z m 4.06682,2.59221 h 1.75401 c 0.60537,-1.42804 0.96238,-3.25966 0.96238,-4.78084 h -2.06445 c 0,1.59879 -0.26388,3.44593 -0.65194,4.78084 z m 11.1294,-2.59221 c 2.63877,0 4.22204,-1.28834 4.22204,-3.32175 0,-3.88055 -5.68113,-2.53012 -5.68113,-4.70322 0,-0.8382 0.76059,-1.28835 2.0955,-1.28835 0.90029,0 1.87819,0.17075 2.63877,0.46567 l 0.57432,-1.59879 c -0.90028,-0.40357 -2.0334,-0.62088 -3.08891,-0.62088 -2.57669,0 -4.29965,1.31938 -4.29965,3.33727 0,3.67876 5.65008,2.48355 5.65008,4.67218 0,0.77611 -0.68298,1.27282 -2.01789,1.27282 -0.9779,0 -2.17311,-0.23283 -3.22861,-0.66745 l -0.57433,1.61431 c 1.14865,0.51223 2.46803,0.83819 3.70981,0.83819 z m 5.82083,-0.15522 h 1.97132 v -7.54379 h -1.97132 z m 0.99342,-8.92526 c 0.74507,0 1.22625,-0.48119 1.22625,-1.22626 0,-0.74506 -0.48118,-1.22625 -1.22625,-1.22625 -0.72954,0 -1.21073,0.48119 -1.21073,1.22625 0,0.74507 0.48119,1.22626 1.21073,1.22626 z m 13.10071,8.92526 h 1.97132 v -4.64114 c 0,-1.87818 -1.03998,-3.02682 -2.7319,-3.02682 -1.08656,0 -2.07998,0.48118 -2.77848,1.3349 l 0.29492,1.21074 c 0.49672,-0.52776 1.10208,-0.82268 1.80058,-0.82268 0.94685,0 1.44356,0.54328 1.44356,1.56774 z m -9.87211,0 h 1.97131 v -6.20888 l -0.55879,-1.33491 h -1.41252 z m 4.93605,0 h 1.97132 v -4.64114 c 0,-1.87818 -1.03998,-3.02682 -2.7319,-3.02682 -1.08656,0 -2.07998,0.48118 -2.77848,1.3349 l 0.29493,1.21074 c 0.49671,-0.52776 1.10207,-0.82268 1.80057,-0.82268 0.94685,0 1.44356,0.54328 1.44356,1.56774 z m 12.77479,0.15522 c 2.04893,0 3.49249,-1.66087 3.49249,-4.03577 0,-2.25072 -1.35043,-3.81846 -3.2907,-3.81846 -1.17969,0 -2.18863,0.62089 -2.74743,1.64535 l 0.49671,0.91581 c 0.38805,-0.5588 1.02446,-0.88476 1.70744,-0.88476 1.1176,0 1.83162,0.88476 1.83162,2.28176 0,1.36596 -0.65193,2.2352 -1.73849,2.2352 -0.83819,0 -1.53669,-0.51223 -1.81609,-1.28834 l -0.5588,1.16416 c 0.43462,1.13312 1.397,1.78505 2.62325,1.78505 z m -3.7719,3.2131 h 1.90924 v -9.53063 l -0.57433,-1.38148 h -1.33491 z m 11.16048,-3.24414 c 0.48119,0 1.03999,-0.10866 1.44356,-0.2794 l -0.40357,-1.33491 c -0.17075,0.0621 -0.34149,0.0931 -0.48119,0.0931 -0.46567,0 -0.71402,-0.29492 -0.71402,-0.82267 v -9.25123 h -1.9558 v 9.49958 c 0,1.30387 0.79163,2.0955 2.11102,2.0955 z m 2.62325,-0.12418 h 1.97132 v -7.54379 h -1.97132 z m 0.99342,-8.92526 c 0.74506,0 1.22625,-0.48119 1.22625,-1.22626 0,-0.74506 -0.48119,-1.22625 -1.22625,-1.22625 -0.72955,0 -1.21073,0.48119 -1.21073,1.22625 0,0.74507 0.48118,1.22626 1.21073,1.22626 z m 3.60114,8.92526 h 1.90923 v -8.72347 c 0,-0.80716 0.45014,-1.2573 1.2573,-1.2573 0.38805,0 0.86924,0.0931 1.16416,0.23283 l 0.40358,-1.42804 c -0.48119,-0.26388 -1.08655,-0.45015 -1.72296,-0.45015 -1.80058,0 -3.01131,1.22626 -3.01131,3.0734 z m -1.16416,-5.96052 h 5.2465 v -1.58327 h -5.2465 z m 6.59693,5.96052 h 1.97132 v -7.54379 h -1.97132 z m 0.99342,-8.92526 c 0.74507,0 1.21073,-0.48119 1.21073,-1.22626 0,-0.74506 -0.46566,-1.22625 -1.21073,-1.22625 -0.74506,0 -1.21073,0.48119 -1.21073,1.22625 0,0.74507 0.46567,1.22626 1.21073,1.22626 z m 6.90738,9.08048 c 0.90029,0 1.84714,-0.17074 2.66982,-0.51223 l -0.43462,-1.38147 c -0.60537,0.24835 -1.27282,0.38805 -1.90923,0.38805 -1.62983,0 -2.49908,-0.90029 -2.49908,-2.6543 0,-1.41252 0.58985,-2.15758 1.64536,-2.15758 0.9779,0 1.5367,0.62089 1.5367,1.73848 h -3.44593 v 1.21074 h 5.23098 c 0.0466,-0.31045 0.0776,-0.77611 0.0776,-1.13312 0,-2.04893 -1.2573,-3.3528 -3.25966,-3.3528 -2.25072,0 -3.75637,1.61431 -3.75637,3.95816 0,2.42146 1.56774,3.89607 4.14442,3.89607 z m 7.46619,0 c 1.17969,0 2.11102,-0.57432 2.68534,-1.55222 l -0.45014,-1.02446 c -0.34149,0.57432 -0.91581,0.91581 -1.62983,0.91581 -1.14864,0 -1.87819,-0.90029 -1.87819,-2.32833 0,-1.33491 0.66746,-2.18863 1.80058,-2.18863 0.74506,0 1.35043,0.35701 1.70744,0.96237 l 0.5588,-1.1952 c -0.51223,-0.93134 -1.397,-1.44357 -2.54564,-1.44357 -2.11102,0 -3.52354,1.59879 -3.52354,3.98921 0,2.32833 1.33491,3.86502 3.27518,3.86502 z m 2.73191,-0.15522 h 1.27282 v -11.4709 h -1.92475 v 10.10495 z"
       id="text141"
       aria-label="Your Video Universe, Simplified" /></g></svg>
